<?xml version="1.0" encoding="UTF-8"?>
<svg width="163" height="661" viewBox="0 0 163 661" xmlns="http://www.w3.org/2000/svg">
  <path d="M 27 520 L 26 522 L 30 527 L 32 534 L 32 541 L 31 542 L 31 647 L 29 650 L 29 654 L 35 656 L 43 656 L 50 658 L 67 659 L 68 660 L 109 660 L 110 659 L 127 659 L 140 656 L 143 653 L 144 641 L 145 640 L 145 625 L 144 620 L 142 618 L 139 619 L 138 621 L 138 627 L 136 635 L 133 641 L 125 649 L 104 653 L 83 653 L 82 652 L 67 652 L 62 648 L 62 596 L 63 595 L 75 595 L 88 600 L 100 610 L 104 616 L 108 626 L 112 626 L 113 624 L 113 569 L 112 566 L 109 565 L 97 578 L 87 584 L 80 586 L 68 586 L 62 583 L 62 535 L 65 533 L 89 532 L 90 531 L 105 531 L 116 534 L 126 541 L 136 556 L 139 564 L 142 566 L 145 563 L 145 524 L 142 522 L 137 522 L 130 524 L 87 525 L 86 524 L 61 524 L 60 523 L 51 523 L 50 522 Z M 86 404 L 78 407 L 73 412 L 70 419 L 70 427 L 73 434 L 77 438 L 82 441 L 91 442 L 99 439 L 105 433 L 107 428 L 107 418 L 105 413 L 99 407 L 92 404 Z M 53 365 L 46 370 L 33 383 L 28 390 L 23 401 L 19 417 L 19 436 L 21 446 L 24 455 L 34 473 L 52 491 L 63 496 L 78 499 L 103 500 L 104 499 L 124 498 L 137 495 L 145 491 L 148 486 L 150 478 L 150 459 L 149 458 L 145 459 L 138 472 L 127 483 L 115 489 L 107 491 L 93 492 L 84 490 L 76 485 L 63 471 L 51 449 L 49 440 L 49 424 L 53 405 L 56 396 L 63 382 L 77 368 L 84 364 L 105 363 L 116 366 L 123 370 L 137 384 L 143 395 L 143 397 L 145 399 L 147 407 L 150 410 L 152 409 L 153 406 L 153 395 L 154 394 L 154 378 L 153 376 L 144 367 L 127 359 L 110 354 L 79 355 L 64 359 Z M 140 156 L 139 156 L 134 168 L 127 177 L 125 177 L 118 172 L 116 172 L 109 168 L 94 164 L 82 164 L 65 168 L 54 173 L 43 182 L 33 171 L 28 168 L 21 170 L 14 176 L 16 179 L 35 194 L 32 203 L 32 214 L 34 218 L 34 221 L 39 230 L 45 236 L 55 243 L 68 248 L 49 269 L 24 269 L 23 270 L 23 272 L 32 274 L 34 277 L 34 281 L 30 289 L 22 299 L 3 318 L 2 326 L 6 329 L 9 328 L 18 319 L 27 307 L 33 322 L 41 330 L 52 336 L 74 342 L 84 342 L 85 343 L 109 342 L 128 334 L 139 326 L 152 339 L 157 337 L 161 333 L 162 327 L 147 311 L 148 291 L 142 277 L 137 270 L 125 260 L 107 252 L 95 249 L 87 240 L 116 208 L 117 209 L 116 221 L 115 224 L 109 229 L 109 232 L 112 233 L 136 233 L 139 232 L 139 229 L 135 226 L 139 210 L 139 202 L 134 187 L 142 179 L 147 170 L 146 164 Z M 104 259 L 112 263 L 121 272 L 125 279 L 126 283 L 125 287 L 103 260 Z M 78 250 L 85 252 L 89 256 L 126 306 L 124 314 L 119 321 L 107 331 L 97 335 L 85 335 L 72 332 L 66 329 L 58 321 L 54 315 L 51 305 L 51 288 L 52 285 L 65 272 L 65 270 L 62 268 Z M 72 237 L 73 236 L 74 237 L 73 238 Z M 71 236 L 72 235 L 73 236 L 72 237 Z M 70 235 L 71 234 L 72 235 L 71 236 Z M 69 234 L 70 233 L 71 234 L 70 235 Z M 66 230 L 67 229 L 70 233 L 69 234 Z M 65 229 L 66 228 L 67 229 L 66 230 Z M 62 225 L 63 224 L 66 228 L 65 229 Z M 61 224 L 62 223 L 63 224 L 62 225 Z M 60 222 L 61 221 L 62 222 L 61 223 Z M 95 173 L 102 176 L 113 187 L 115 190 L 116 195 L 82 233 L 56 201 L 56 194 L 60 184 L 66 178 L 79 173 L 84 173 L 85 172 Z M 66 4 L 67 16 L 58 39 L 50 64 L 48 67 L 45 78 L 43 81 L 41 89 L 39 92 L 32 114 L 30 117 L 27 128 L 24 135 L 14 144 L 16 146 L 68 146 L 70 143 L 66 142 L 60 134 L 60 123 L 62 118 L 63 110 L 67 100 L 125 100 L 126 101 L 126 105 L 128 110 L 128 125 L 125 134 L 120 140 L 109 145 L 102 146 L 101 147 L 102 148 L 138 147 L 139 146 L 146 146 L 155 144 L 157 142 L 156 140 L 148 136 L 142 130 L 140 125 L 140 121 L 134 98 L 134 93 L 132 89 L 132 85 L 130 80 L 130 76 L 128 71 L 123 44 L 116 16 L 116 12 L 123 5 L 123 3 L 122 2 L 69 2 Z M 102 14 L 106 19 L 109 29 L 110 37 L 116 56 L 123 91 L 122 92 L 111 92 L 110 93 L 70 93 L 69 92 L 71 86 L 73 83 L 76 72 L 78 69 L 91 32 L 97 19 Z" fill="#000000" fill-rule="evenodd"/>
</svg>
