<svg xmlns="http://www.w3.org/2000/svg" width="1200" height="630" viewBox="0 0 1200 630">
  <rect width="1200" height="630" fill="#0c0c0c"/>
  <path d="M0 0h1200v630H0z" fill="none"/>
  <g opacity="0.12" stroke="#ffffff" stroke-width="1">
    <path d="M0 44h1200M0 88h1200M0 132h1200M0 176h1200M0 220h1200M0 264h1200M0 308h1200M0 352h1200M0 396h1200M0 440h1200M0 484h1200M0 528h1200M0 572h1200M44 0v630M88 0v630M132 0v630M176 0v630M220 0v630M264 0v630M308 0v630M352 0v630M396 0v630M440 0v630M484 0v630M528 0v630M572 0v630M616 0v630M660 0v630M704 0v630M748 0v630M792 0v630M836 0v630M880 0v630M924 0v630M968 0v630M1012 0v630M1056 0v630M1100 0v630M1144 0v630"/>
  </g>
  <text x="72" y="128" fill="#e8e8e2" font-family="Arial Black, Arial, sans-serif" font-size="78" font-weight="900" letter-spacing="-4">TA<tspan fill="#c8f135">.</tspan></text>
  <line x1="72" y1="557" x2="1128" y2="557" stroke="#c8f135" stroke-width="4"/>
  <text x="600" y="286" fill="#e8e8e2" text-anchor="middle" font-family="Courier New, monospace" font-size="30" letter-spacing="4">Toni Adekola</text>
  <text x="600" y="338" fill="#c8f135" text-anchor="middle" font-family="Courier New, monospace" font-size="22" letter-spacing="5">Frontend Engineer</text>
  <text x="600" y="384" fill="rgba(232,232,226,0.5)" text-anchor="middle" font-family="Courier New, monospace" font-size="18" letter-spacing="3">Lagos, NG</text>
</svg>
